<svg xmlns="http://www.w3.org/2000/svg" viewBox="0 0 37.1 30.7"><path d="M17 2.1c-.3.7-.6 1.3-1 1.9-.5.6-1.1 1.1-1.7 1.6-.3.1-.1.4.1.4 2.9-1 3-.2 4.6-.4 1.5-.2 3.6-1.2 4-2.8.1-.5-.5-.7-.9-.4-.5.4-.9.9-1.4 1.4-.2.2-.4.3-.6.4.6-.5 1-1.1 1.1-1.8 0-.3-.4-.4-.6-.3-.7.4-1.1 1.2-1.7 1.7-.2.2-.5.4-.9.6.2-.2.4-.4.5-.6.3-.3.9-1.1 1.1-1.7.2-.5-.1-.8-.9-.2-.3.2-.7.6-.9.9.1-.2.1-.4.1-.5 0-.6-.7-.5-.9-.2z" fill="#8f6f54"/><path d="M32.9 6.5c-3.5.2-6.4-.4-9.7-1.2-5.3-1.3-9-.5-12 .5-2.2.8-3.9 1.7-6.1 1.8-.4 0-.8.4-.7.7.6 2.8.2 5.7.7 8.6.4 2.8 1.8 5.5 3.5 7.8 2.6 3.4 7.1 4.6 11.2 4.4 3.7-.2 7.8-1.8 10.1-4.8 4.9-6.4.6-12.2 3.4-16.7.4-.5.1-1.1-.4-1.1z" fill="#d6b47c"/><path d="M26.4 8.7c-3.3-1.7-8.8-1.9-13-.4-7.6 2.7-9.3 12.1-2.7 16.4 4.8 3.1 11.8 3.3 16.5 0 5.5-3.7 5.4-12.8-.8-16z" fill="#e1c897"/><path d="M.8 9.2c-.3.6-.4 1.2-.1 1.9.2.5.9.5 1.1 0 .3-.6.6-1.1 1-1.5.4-.6 1.1-.7 1.7-1.1.4-.3.6-.6.3-1-1.3-1.8-3.5-.8-4.4.3-.5.6-.7 1.8.4 1.4z" fill="#8f6f54"/><path d="M20.7 18.3c-1.1-1-3.3-.6-4.3.6-.7.9-.7 2.5.8 3.9 1.1 1 2.5.4 3.3-.6.9-1.1 1.4-2.8.2-3.9z" fill="#3d2e26"/><path d="M31.6 20.2c-1.6-2.6-5.9-.9-5.1 2.2.5 2 3.7 2.8 5 .9.6-.8.7-2 .1-3.1z" fill="#eb8b6c"/><path d="M12.6 9.7c-.2 0-.4.1-.6.1-.3.1-.6.2-.7.5 0 .1 0 .2.1.3.4.2 1.2-.2 1.4-.5.2-.3 0-.4-.2-.4zm7.7-4.3c-.1-.2-.5-.2-.5 0-.1.4-.1.9.3 1.1.1.1.4 0 .4-.1 0-.3-.1-.6-.2-1zm-2.1.1c-.1-.2-.5-.2-.6 0-.1.4-.1.9.3 1.1.1.1.4 0 .4-.1.1-.3-.1-.7-.1-1zm-2.1 2.4c-.1-.2-.5-.2-.6 0-.1.4-.1.9.3 1.1.1.1.4 0 .4-.1.2-.4 0-.7-.1-1zm.3-2c-.1-.2-.5-.2-.6 0-.1.4-.1.9.3 1.1.1.1.4 0 .4-.1.1-.4 0-.7-.1-1zm7.6.5c0-.3-.5-.3-.6 0 0 .3 0 .9.2 1.1.1.1.3.1.4 0 .4-.3.1-.7 0-1.1zm-1.5-.6c-.1-.2-.5-.2-.6 0-.1.4-.1.9.3 1.1.1.1.4 0 .4-.1.1-.4-.1-.7-.1-1zm-8 .3c-.1-.3-.5-.2-.6.1-.1.4 0 1.1.4 1.3.1.1.3 0 .3-.1.3-.5-.1-.9-.1-1.3zm-.7 1.8c-.2-.3-.3-.5-.4-.8-.1-.3-.5-.2-.5.1-.1.4.1.8.4 1.1.2.1.6-.1.5-.4zm7-.9c-.1-.1-.4 0-.4.1 0 .4-.1 1 .4 1.2.1 0 .2 0 .3-.1.3-.3-.1-1-.3-1.2zm-1.1.8c-.1-.3-.2-.6-.2-.9 0-.3-.5-.3-.5 0-.1.4-.1.8 0 1.1.1.1.2.2.4.2h.2c.1-.2.1-.3.1-.4zm-2.1-.6c-.2-.2-.7-.2-.6.6.1.9 1 1 1 .5 0-.2-.1-.8-.4-1.1zm6.3 2c-.3-.2-.8-.1-1.1-.2-.2 0-.4.2-.2.4.3.3 1.5.8 1.5.1.1-.1-.1-.2-.2-.3z" fill="#3d2e26"/><path d="M15 12.4c-1.3-.8-3.3-.9-4.9-.2-2.9 1.2-3.6 5.5-1 7.5 1.8 1.4 4.5 1.5 6.3 0 2-1.6 2-5.8-.4-7.3z" fill="#fff"/><path d="M11.3 13.2c-.6-.5-2.4.3-1.8.6.6.3 1 1.5.8 2-.2.4-1 .8-1.9-.7-.3-.3-.5.1-.5.6.2 1.5.7 2.3 1.6 2.4 2.8.4 3.9-3.2 1.8-4.9z" fill="#3d2e26"/><path d="M36.4 8.4c.3.6.4 1.2.1 1.9-.2.5-.9.5-1.1 0-.3-.6-.6-1.1-1-1.5-.5-.6-1.2-.7-1.8-1.1-.5-.3-.5-.6-.2-1 1.3-1.7 3.4-.8 4.3.3.5.6.7 1.8-.3 1.4z" fill="#8f6f54"/><path d="M27.5 11.3c-1.3-.8-3.3-.9-4.9-.2-2.9 1.2-3.6 5.5-1 7.5 1.8 1.4 4.5 1.5 6.3 0 2-1.7 2-5.8-.4-7.3z" fill="#fff"/><path d="M23.8 12.1c-.6-.5-2.4.3-1.8.6.6.3 1 1.5.8 2-.2.4-1 .8-1.9-.7-.3-.3-.5.1-.5.6.2 1.5.7 2.3 1.6 2.4 2.8.4 3.9-3.3 1.8-4.9z" fill="#3d2e26"/><path d="M12.6 22.1c-1.6-2.6-5.9-.9-5.1 2.2.5 2 3.7 2.8 5 .9.5-.8.6-2 .1-3.1z" fill="#eb8b6c"/></svg>